<?xml version="1.0" encoding="utf-8"?>
<!-- Generator: Adobe Illustrator 23.0.6, SVG Export Plug-In . SVG Version: 6.00 Build 0)  -->
<svg version="1.1" xmlns="http://www.w3.org/2000/svg" xmlns:xlink="http://www.w3.org/1999/xlink" x="0px" y="0px"
	 viewBox="0 0 153 35" style="enable-background:new 0 0 153 35;" xml:space="preserve">
<style type="text/css">
	.st0{fill:#999999;}
	.st1{enable-background:new    ;}
</style>
<g id="rominal">
	<g>
		<path d="M33.6,15.3c0,0.7,0,1.2,0,1.7s0,0.9,0.1,1.3s0.1,0.7,0.1,0.9s0.1,0.4,0.1,0.6v0h-2.8v0c0-0.2,0.1-0.4,0.1-0.6
			s0.1-0.5,0.1-0.9s0.1-0.8,0.1-1.3s0-1.1,0-1.7V7.7c0-0.7,0-1.2,0-1.7s0-0.9-0.1-1.3S31.4,4,31.3,3.8s-0.1-0.5-0.1-0.6v0l0.5,0
			c0.1,0,0.3,0,0.5,0s0.4,0,0.6,0c0.3,0,0.7,0,1.2-0.1s1.2-0.1,2-0.1c0.8,0,1.4,0.1,2.1,0.3s1.2,0.5,1.7,0.9s0.8,0.9,1.1,1.4
			s0.4,1.2,0.4,1.9c0,0.6-0.1,1.1-0.2,1.6s-0.3,0.9-0.6,1.3s-0.6,0.7-0.9,1s-0.8,0.6-1.2,0.8l4.1,5.8c0.2,0.3,0.4,0.5,0.6,0.8
			s0.3,0.4,0.5,0.5s0.3,0.3,0.5,0.4s0.3,0.2,0.5,0.2v0h-3.4c0-0.1-0.1-0.3-0.2-0.6s-0.3-0.5-0.5-0.7l-4.1-5.8c-0.2,0-0.4,0-0.5,0
			s-0.4,0-0.6,0c-0.2,0-0.4,0-0.7,0s-0.4,0-0.7-0.1V15.3z M33.6,11.8c0.2,0,0.4,0.1,0.6,0.1s0.4,0,0.6,0c0.6,0,1.1-0.1,1.6-0.3
			s0.9-0.4,1.2-0.8s0.6-0.8,0.8-1.3s0.3-1.2,0.3-1.9c0-0.6-0.1-1.1-0.2-1.6S38.3,5.1,38,4.8s-0.6-0.6-1-0.8s-0.9-0.3-1.4-0.3
			c-0.5,0-1,0-1.3,0.1S33.8,3.9,33.6,4V11.8z"/>
		<path d="M55.4,2.8c1.3,0,2.5,0.2,3.6,0.6s2.1,1,2.9,1.8s1.4,1.7,1.9,2.8s0.7,2.3,0.7,3.6c0,0.7-0.1,1.5-0.3,2.2s-0.4,1.4-0.8,2
			s-0.7,1.2-1.2,1.8s-1,1-1.7,1.4s-1.3,0.7-2.1,0.9s-1.6,0.3-2.4,0.3c-1.3,0-2.5-0.2-3.6-0.6s-2.1-1-2.9-1.8s-1.4-1.7-1.9-2.8
			S47,12.8,47,11.5c0-0.7,0.1-1.5,0.3-2.2s0.4-1.4,0.8-2.1s0.7-1.2,1.2-1.8s1-1,1.7-1.4s1.3-0.7,2.1-0.9S54.6,2.8,55.4,2.8z
			 M56.1,19.2c0.9,0,1.7-0.2,2.4-0.5s1.3-0.8,1.9-1.4s0.9-1.3,1.2-2.2s0.4-1.8,0.4-2.9c0-1.2-0.1-2.3-0.4-3.3S60.9,7,60.3,6.3
			s-1.2-1.3-2-1.8s-1.8-0.6-2.9-0.6c-0.9,0-1.7,0.2-2.4,0.5s-1.3,0.8-1.9,1.3S50.3,7,50,7.8s-0.4,1.8-0.4,2.9c0,1.2,0.1,2.3,0.4,3.3
			s0.7,1.9,1.2,2.7s1.2,1.4,2.1,1.8S55,19.2,56.1,19.2z"/>
		<path d="M68.7,19.8c0.1-0.1,0.2-0.3,0.3-0.6s0.2-0.6,0.3-0.9c0.1-0.5,0.2-1.2,0.3-1.8s0.2-1.4,0.3-2.2s0.2-1.5,0.3-2.3
			s0.2-1.6,0.3-2.3s0.2-1.5,0.3-2.2s0.2-1.4,0.3-1.9s0.1-1.1,0.2-1.5s0.1-0.8,0.1-1h1.5l7.4,13.8l7.3-13.8h1.1L90.6,17
			c0.1,0.4,0.1,0.8,0.2,1.1s0.1,0.6,0.2,0.8s0.1,0.4,0.2,0.6s0.1,0.3,0.2,0.4v0h-3v0c0-0.1,0.1-0.2,0.1-0.4s0.1-0.4,0.1-0.7
			c0-0.1,0-0.2,0-0.3s0-0.2,0-0.3L87,6.8l-6.9,13l-0.8-0.1l-7-13c-0.3,1.9-0.5,3.6-0.7,5.1c-0.1,0.7-0.2,1.3-0.3,2s-0.2,1.3-0.2,1.9
			s-0.1,1.1-0.2,1.5s-0.1,0.8-0.1,1c0,0.3,0,0.5,0,0.7s0,0.4,0,0.5c0,0.2,0,0.3,0.1,0.4L68.7,19.8L68.7,19.8z"/>
		<path d="M96.4,19.8c0-0.2,0.1-0.4,0.1-0.6s0.1-0.5,0.1-0.9s0.1-0.8,0.1-1.3s0-1.1,0-1.7V7.7c0-0.7,0-1.2,0-1.7s0-0.9-0.1-1.3
			S96.6,4,96.6,3.7s-0.1-0.4-0.1-0.6v0h2.8v0c0,0.2-0.1,0.4-0.1,0.6S99,4.3,99,4.7S99,5.4,98.9,5.9s0,1.1,0,1.7v7.6
			c0,0.7,0,1.2,0,1.7s0,0.9,0.1,1.3s0.1,0.7,0.1,0.9s0.1,0.4,0.1,0.6v0L96.4,19.8L96.4,19.8z"/>
		<path d="M105.8,3.1l12.1,12.8V7.7c0-0.7,0-1.2,0-1.7s0-0.9-0.1-1.3s-0.1-0.7-0.1-0.9s-0.1-0.4-0.1-0.6v0h2.1v0
			c0,0.2-0.1,0.4-0.1,0.6s-0.1,0.5-0.1,0.9s-0.1,0.8-0.1,1.3s0,1.1,0,1.7v12.4h-0.4L106.8,7.3v8c0,0.7,0,1.2,0,1.7s0,0.9,0.1,1.3
			s0.1,0.7,0.1,0.9s0.1,0.4,0.1,0.6v0H105v0c0-0.2,0.1-0.4,0.1-0.6s0.1-0.5,0.1-0.9s0.1-0.8,0.1-1.3s0-1.1,0-1.7V7.7
			c0-0.7,0-1.2,0-1.7s0-0.9-0.1-1.3s-0.1-0.7-0.1-0.9s-0.1-0.4-0.1-0.6v0H105.8z"/>
		<path d="M136.9,19.9L136.9,19.9c0-0.1,0-0.1,0-0.2s0-0.1,0-0.2c0-0.2,0-0.5-0.1-0.8s-0.2-0.7-0.4-1.1l-1.4-3.2c-0.4,0-1,0-1.7,0
			s-1.5,0-2.4,0c-0.6,0-1.2,0-1.8,0s-1.1,0-1.6,0l-1.3,3.1c-0.1,0.3-0.2,0.6-0.4,0.9s-0.2,0.7-0.2,1c0,0.1,0,0.2,0,0.3s0,0.1,0,0.1
			v0h-2.4v0c0.1-0.1,0.3-0.4,0.5-0.8s0.4-0.9,0.7-1.4l6.7-14.9h0.9l6.4,14.3c0.1,0.3,0.3,0.7,0.5,1s0.3,0.6,0.5,0.8s0.3,0.5,0.4,0.6
			s0.2,0.3,0.2,0.3v0H136.9z M129.3,13.3c0.5,0,0.9,0,1.4,0s0.9,0,1.4,0s0.9,0,1.3,0s0.8,0,1.1,0l-3.3-7.4l-3.2,7.5H129.3z"/>
		<path d="M146.4,18.9c0.9,0,1.8,0,2.5-0.1s1.4-0.2,2-0.3c0.7-0.1,1.3-0.2,1.8-0.4l-0.3,1.9c-0.1,0-0.2,0-0.4,0s-0.4,0-0.6,0
			c-0.2,0-0.5,0-0.7,0c-0.3,0-0.5,0-0.7,0c-0.2,0-0.4,0-0.6,0s-0.3,0-0.4,0h-5.1v0c0-0.2,0.1-0.4,0.1-0.6c0-0.2,0.1-0.5,0.1-0.9
			c0-0.4,0.1-0.8,0.1-1.3c0-0.5,0-1.1,0-1.7V7.7c0-0.7,0-1.2,0-1.7c0-0.5,0-0.9-0.1-1.3c0-0.4-0.1-0.7-0.1-0.9
			c0-0.2-0.1-0.4-0.1-0.6v0h2.8v0c0,0.2-0.1,0.4-0.1,0.6c0,0.2-0.1,0.5-0.1,0.9c0,0.4-0.1,0.8-0.1,1.3c0,0.5,0,1.1,0,1.7V18.9z"/>
	</g>
</g>
<g id="hotels__x26__resorts">
	<g>
		<path class="st0" d="M30.8,33.6l0.7-0.1c0.1,0,0.1-0.1,0.2-0.1c0-0.1,0.1-0.1,0.1-0.2v-5.9c0-0.1,0-0.2-0.1-0.2
			c0-0.1-0.1-0.1-0.2-0.1l-0.7-0.1v-0.3h2.8v0.3l-0.7,0.1c-0.1,0-0.1,0.1-0.2,0.1s-0.1,0.1-0.1,0.2v2.6h3.6v-2.6
			c0-0.1,0-0.1-0.1-0.2c0-0.1-0.1-0.1-0.2-0.1l-0.7-0.1v-0.3h2.8v0.3l-0.7,0.1c-0.1,0-0.1,0.1-0.2,0.1c0,0.1-0.1,0.1-0.1,0.2v5.9
			c0,0.1,0,0.1,0.1,0.2c0,0.1,0.1,0.1,0.2,0.1l0.7,0.1v0.3h-2.8v-0.3l0.7-0.1c0.1,0,0.1-0.1,0.2-0.1c0-0.1,0.1-0.1,0.1-0.2v-2.9
			h-3.6v2.9c0,0.1,0,0.1,0.1,0.2c0,0.1,0.1,0.1,0.2,0.1l0.7,0.1v0.3h-2.8V33.6z"/>
		<path class="st0" d="M43.4,34.1c-0.5,0-1-0.1-1.4-0.3s-0.8-0.5-1.1-0.8c-0.3-0.3-0.5-0.7-0.7-1.2c-0.1-0.5-0.2-1-0.2-1.5
			c0-0.5,0.1-1,0.2-1.5c0.2-0.5,0.4-0.9,0.7-1.2s0.6-0.6,1.1-0.8s0.9-0.3,1.4-0.3c0.6,0,1.1,0.1,1.5,0.3s0.8,0.5,1.1,0.8
			c0.3,0.3,0.5,0.8,0.6,1.2c0.1,0.5,0.2,1,0.2,1.5c0,0.3,0,0.6-0.1,0.9c-0.1,0.3-0.1,0.6-0.3,0.9s-0.3,0.5-0.5,0.8
			c-0.2,0.2-0.4,0.5-0.7,0.6c-0.3,0.2-0.5,0.3-0.9,0.4C44.2,34,43.8,34.1,43.4,34.1z M43.5,33.7c0.4,0,0.7-0.1,1-0.3
			c0.3-0.2,0.5-0.4,0.7-0.7s0.3-0.6,0.4-1c0.1-0.4,0.1-0.8,0.1-1.3c0-0.5,0-1-0.1-1.5s-0.2-0.8-0.4-1.1c-0.2-0.3-0.5-0.6-0.8-0.7
			s-0.7-0.3-1.1-0.3c-0.4,0-0.7,0.1-1,0.3c-0.3,0.2-0.5,0.4-0.7,0.7c-0.2,0.3-0.3,0.6-0.4,1c-0.1,0.4-0.1,0.8-0.1,1.2
			c0,0.5,0,1,0.1,1.5s0.2,0.8,0.4,1.2c0.2,0.3,0.5,0.6,0.8,0.8C42.7,33.6,43.1,33.7,43.5,33.7z"/>
		<path class="st0" d="M50.2,33.6l0.8-0.1c0.1,0,0.1-0.1,0.2-0.1c0-0.1,0.1-0.1,0.1-0.2v-6.2h-1.7c-0.1,0-0.1,0-0.2,0.1
			c0,0-0.1,0.1-0.1,0.1l-0.4,1.2h-0.3v-1.8h6.2v1.8h-0.3l-0.4-1.2c0-0.1,0-0.1-0.1-0.1c0,0-0.1-0.1-0.1-0.1h-1.7v6.2
			c0,0.1,0,0.2,0.1,0.2c0,0.1,0.1,0.1,0.2,0.1l0.8,0.1v0.3h-3V33.6z"/>
		<path class="st0" d="M56.6,33.6l0.7-0.1c0.1,0,0.1-0.1,0.2-0.1c0-0.1,0.1-0.1,0.1-0.2v-5.9c0-0.1,0-0.2-0.1-0.2
			c0-0.1-0.1-0.1-0.2-0.1l-0.7-0.1v-0.3h5.4v1.7h-0.3l-0.4-1.1c0-0.1,0-0.1-0.1-0.1c0,0-0.1-0.1-0.1-0.1h-2.6v2.9h1.7
			c0.1,0,0.1,0,0.2,0c0,0,0.1-0.1,0.1-0.1l0.3-0.9h0.3v2.5h-0.3l-0.3-0.9c0-0.1,0-0.1-0.1-0.1c0,0-0.1-0.1-0.2-0.1h-1.7v3.2h3
			c0.1,0,0.1,0,0.1-0.1c0,0,0.1-0.1,0.1-0.1l0.4-1.3h0.3v1.9h-5.8V33.6z"/>
		<path class="st0" d="M64.2,33.6l0.7-0.1c0.1,0,0.1-0.1,0.2-0.1c0-0.1,0.1-0.1,0.1-0.2v-5.9c0-0.1,0-0.2-0.1-0.2
			c0-0.1-0.1-0.1-0.2-0.1l-0.7-0.1v-0.3h2.9v0.3l-0.7,0.1c-0.1,0-0.1,0.1-0.2,0.1s-0.1,0.1-0.1,0.2v6.2h2.7c0,0,0.1,0,0.1,0
			c0,0,0,0,0.1-0.1c0,0,0-0.1,0-0.1s0-0.1,0-0.1l0.4-1.4h0.3v2.1h-5.5V33.6z"/>
		<path class="st0" d="M71.5,31.7h0.3l0.4,1.1c0,0,0.1,0.1,0.1,0.1c0.1,0.1,0.1,0.1,0.1,0.1c0.1,0.1,0.3,0.2,0.4,0.2
			c0.1,0.1,0.3,0.1,0.4,0.2s0.3,0.1,0.4,0.1s0.3,0,0.4,0c0.2,0,0.4,0,0.6-0.1c0.2-0.1,0.3-0.2,0.5-0.3c0.1-0.1,0.2-0.3,0.3-0.5
			c0.1-0.2,0.1-0.4,0.1-0.6c0-0.3-0.1-0.6-0.3-0.8s-0.4-0.4-0.7-0.5c-0.1-0.1-0.3-0.1-0.4-0.1c-0.1,0-0.3-0.1-0.4-0.1
			s-0.3-0.1-0.4-0.1s-0.3-0.1-0.4-0.1c-0.4-0.2-0.7-0.4-0.9-0.7c-0.2-0.3-0.3-0.7-0.3-1.1c0-0.3,0.1-0.6,0.2-0.9
			c0.1-0.3,0.3-0.5,0.5-0.7s0.5-0.4,0.7-0.5c0.3-0.1,0.6-0.2,0.9-0.2c0.2,0,0.4,0,0.5,0s0.4,0,0.5,0.1c0.2,0,0.3,0.1,0.5,0.1
			c0.2,0,0.3,0.1,0.5,0.1v1.7h-0.3l-0.4-1c0-0.1-0.1-0.1-0.1-0.1c0,0-0.1-0.1-0.1-0.1c-0.1-0.1-0.2-0.1-0.3-0.2S74.7,27,74.5,27
			s-0.2-0.1-0.3-0.1s-0.2,0-0.3,0c-0.2,0-0.4,0-0.6,0.1s-0.3,0.1-0.4,0.2c-0.1,0.1-0.2,0.2-0.3,0.4c-0.1,0.1-0.1,0.3-0.1,0.5
			c0,0.1,0,0.3,0,0.4c0,0.1,0.1,0.3,0.2,0.4c0.1,0.1,0.2,0.2,0.3,0.3c0.1,0.1,0.3,0.2,0.5,0.3c0.1,0,0.3,0.1,0.4,0.1
			c0.1,0,0.3,0.1,0.4,0.1c0.1,0,0.3,0.1,0.4,0.1c0.1,0,0.3,0.1,0.4,0.2c0.2,0.1,0.3,0.1,0.5,0.2c0.2,0.1,0.3,0.2,0.4,0.3
			s0.2,0.3,0.3,0.5c0.1,0.2,0.1,0.4,0.1,0.7c0,0.3-0.1,0.6-0.2,0.8s-0.3,0.5-0.5,0.7s-0.5,0.4-0.8,0.5c-0.3,0.1-0.8,0.2-1.2,0.2
			c-0.2,0-0.3,0-0.5,0c-0.2,0-0.4-0.1-0.5-0.1s-0.4-0.1-0.6-0.1s-0.4-0.1-0.6-0.2L71.5,31.7z"/>
		<path class="st0" d="M84.3,29.9c-0.2-0.2-0.4-0.4-0.6-0.6c-0.1-0.2-0.3-0.3-0.3-0.5c-0.1-0.1-0.1-0.3-0.1-0.4c0-0.1,0-0.3,0-0.4
			c0-0.2,0.1-0.5,0.2-0.7c0.1-0.2,0.3-0.4,0.5-0.5c0.2-0.1,0.4-0.2,0.6-0.3c0.2-0.1,0.5-0.1,0.7-0.1c0.3,0,0.5,0,0.7,0.1
			s0.4,0.2,0.6,0.3c0.2,0.1,0.3,0.3,0.4,0.4c0.1,0.2,0.1,0.4,0.1,0.6c0,0.3,0,0.5-0.1,0.7c-0.1,0.2-0.2,0.4-0.3,0.6l-1.2,0.8l2,2
			c0.1-0.1,0.2-0.3,0.3-0.5c0.1-0.2,0.1-0.3,0.2-0.5c0.1-0.2,0.1-0.3,0.1-0.4c0-0.1,0-0.2,0-0.3l-1-0.2v-0.3h2.6V30L89,30.1
			c-0.1,0-0.1,0.1-0.2,0.1s-0.1,0.1-0.1,0.2c-0.1,0.2-0.2,0.3-0.3,0.5c-0.1,0.2-0.2,0.3-0.3,0.4S88,31.6,88,31.8
			c-0.1,0.1-0.2,0.3-0.3,0.4l0.9,0.9c0,0,0.1,0.1,0.1,0.1c0.1,0,0.1,0.1,0.2,0.1c0.1,0,0.1,0.1,0.2,0.1s0.1,0.1,0.2,0.1l0.6,0.1v0.3
			h-1.1c-0.2,0-0.3,0-0.4,0s-0.2,0-0.3-0.1c-0.1,0-0.2-0.1-0.2-0.2c-0.1-0.1-0.2-0.2-0.3-0.3l-0.4-0.4c-0.2,0.2-0.3,0.4-0.5,0.5
			c-0.2,0.2-0.4,0.3-0.6,0.4s-0.4,0.2-0.6,0.2c-0.2,0.1-0.4,0.1-0.7,0.1c-0.3,0-0.6,0-0.8-0.1c-0.3-0.1-0.5-0.2-0.7-0.4
			c-0.2-0.2-0.3-0.4-0.5-0.6c-0.1-0.2-0.2-0.5-0.2-0.8c0-0.1,0-0.2,0-0.4s0.1-0.3,0.1-0.4c0.1-0.1,0.1-0.2,0.2-0.4s0.1-0.2,0.2-0.3
			L84.3,29.9z M84.6,30.2c-0.2,0.1-0.3,0.2-0.4,0.3c-0.1,0.1-0.2,0.2-0.3,0.4c-0.1,0.1-0.1,0.3-0.2,0.5c0,0.2-0.1,0.4-0.1,0.6
			c0,0.2,0,0.4,0.1,0.6c0.1,0.2,0.2,0.3,0.3,0.4s0.3,0.2,0.4,0.3c0.2,0.1,0.4,0.1,0.6,0.1c0.2,0,0.4,0,0.6,0s0.3-0.1,0.5-0.1
			s0.3-0.1,0.4-0.2s0.3-0.2,0.4-0.4L84.6,30.2z M85.1,29.6c0.2-0.1,0.4-0.2,0.5-0.4s0.2-0.3,0.3-0.4c0.1-0.1,0.1-0.3,0.2-0.5
			s0-0.3,0-0.5c0-0.3-0.1-0.6-0.3-0.8c-0.2-0.2-0.4-0.3-0.7-0.3c-0.1,0-0.3,0-0.4,0.1c-0.1,0.1-0.2,0.1-0.3,0.2s-0.2,0.2-0.2,0.3
			c-0.1,0.1-0.1,0.3-0.1,0.4s0,0.3,0,0.4c0,0.1,0.1,0.3,0.2,0.4c0.1,0.1,0.2,0.3,0.3,0.4C84.8,29.2,85,29.4,85.1,29.6z"/>
		<path class="st0" d="M95.4,33.6l0.7-0.1c0.1,0,0.1-0.1,0.2-0.1s0.1-0.1,0.1-0.2v-5.9c0-0.1,0-0.2-0.1-0.2c0-0.1-0.1-0.1-0.2-0.1
			l-0.7-0.1v-0.3h2.7c0.4,0,0.7,0,1,0.1c0.3,0,0.5,0.1,0.7,0.2s0.4,0.2,0.5,0.3c0.1,0.1,0.2,0.2,0.3,0.4c0.1,0.1,0.1,0.3,0.2,0.4
			c0,0.1,0,0.3,0,0.4c0,0.3-0.1,0.6-0.2,0.8c-0.1,0.2-0.2,0.4-0.4,0.6c-0.2,0.2-0.3,0.3-0.5,0.4c-0.2,0.1-0.4,0.2-0.5,0.2l2,2.7
			c0,0,0.1,0.1,0.1,0.1c0,0,0.1,0.1,0.1,0.1s0.1,0.1,0.2,0.1c0.1,0,0.1,0.1,0.1,0.1l0.6,0.1v0.3h-1.1c-0.2,0-0.3,0-0.4,0
			c-0.1,0-0.2-0.1-0.3-0.1c-0.1-0.1-0.2-0.1-0.2-0.2c-0.1-0.1-0.1-0.2-0.2-0.3l-1.9-2.6l-0.9-0.2v2.7c0,0.1,0,0.1,0.1,0.2
			c0,0.1,0.1,0.1,0.2,0.1l0.8,0.1v0.3h-2.9V33.6z M97.3,30.1c0,0,0.1,0,0.2,0s0.1,0,0.2,0c0.1,0,0.2,0,0.2,0s0.1,0,0.2,0
			c0.3,0,0.5,0,0.7-0.1c0.2-0.1,0.4-0.2,0.5-0.4c0.1-0.1,0.2-0.3,0.3-0.5c0.1-0.2,0.1-0.4,0.1-0.6c0-0.3,0-0.5-0.1-0.7
			c-0.1-0.2-0.2-0.4-0.3-0.5c-0.1-0.1-0.3-0.2-0.5-0.3c-0.2-0.1-0.5-0.1-0.7-0.1h-0.7V30.1z"/>
		<path class="st0" d="M103.5,33.6l0.7-0.1c0.1,0,0.1-0.1,0.2-0.1c0-0.1,0.1-0.1,0.1-0.2v-5.9c0-0.1,0-0.2-0.1-0.2
			c0-0.1-0.1-0.1-0.2-0.1l-0.7-0.1v-0.3h5.4v1.7h-0.3l-0.4-1.1c0-0.1,0-0.1-0.1-0.1c0,0-0.1-0.1-0.1-0.1h-2.6v2.9h1.7
			c0.1,0,0.1,0,0.2,0c0,0,0.1-0.1,0.1-0.1l0.3-0.9h0.3v2.5h-0.3l-0.3-0.9c0-0.1,0-0.1-0.1-0.1c0,0-0.1-0.1-0.2-0.1h-1.7v3.2h3
			c0.1,0,0.1,0,0.1-0.1s0.1-0.1,0.1-0.1L109,32h0.3v1.9h-5.8V33.6z"/>
		<path class="st0" d="M111.3,31.7h0.3l0.4,1.1c0,0,0.1,0.1,0.1,0.1c0.1,0.1,0.1,0.1,0.1,0.1c0.1,0.1,0.3,0.2,0.4,0.2
			s0.3,0.1,0.4,0.2s0.3,0.1,0.4,0.1c0.1,0,0.3,0,0.4,0c0.2,0,0.4,0,0.6-0.1c0.2-0.1,0.3-0.2,0.5-0.3c0.1-0.1,0.2-0.3,0.3-0.5
			c0.1-0.2,0.1-0.4,0.1-0.6c0-0.3-0.1-0.6-0.3-0.8s-0.4-0.4-0.7-0.5c-0.1-0.1-0.3-0.1-0.4-0.1c-0.1,0-0.3-0.1-0.4-0.1
			c-0.1,0-0.3-0.1-0.4-0.1c-0.1,0-0.3-0.1-0.4-0.1c-0.4-0.2-0.7-0.4-0.9-0.7s-0.3-0.7-0.3-1.1c0-0.3,0.1-0.6,0.2-0.9
			s0.3-0.5,0.5-0.7s0.5-0.4,0.7-0.5c0.3-0.1,0.6-0.2,0.9-0.2c0.2,0,0.4,0,0.5,0s0.4,0,0.5,0.1s0.3,0.1,0.5,0.1
			c0.2,0,0.3,0.1,0.5,0.1v1.7h-0.3l-0.4-1c0-0.1-0.1-0.1-0.1-0.1c0,0-0.1-0.1-0.1-0.1c-0.1-0.1-0.2-0.1-0.3-0.2s-0.2-0.1-0.3-0.1
			s-0.2-0.1-0.3-0.1c-0.1,0-0.2,0-0.3,0c-0.2,0-0.4,0-0.6,0.1s-0.3,0.1-0.4,0.2c-0.1,0.1-0.2,0.2-0.3,0.4c-0.1,0.1-0.1,0.3-0.1,0.5
			c0,0.1,0,0.3,0,0.4c0,0.1,0.1,0.3,0.2,0.4c0.1,0.1,0.2,0.2,0.3,0.3c0.1,0.1,0.3,0.2,0.5,0.3c0.1,0,0.3,0.1,0.4,0.1
			c0.1,0,0.3,0.1,0.4,0.1c0.1,0,0.3,0.1,0.4,0.1c0.1,0,0.3,0.1,0.4,0.2c0.2,0.1,0.3,0.1,0.5,0.2c0.2,0.1,0.3,0.2,0.4,0.3
			c0.1,0.1,0.2,0.3,0.3,0.5c0.1,0.2,0.1,0.4,0.1,0.7c0,0.3-0.1,0.6-0.2,0.8c-0.1,0.3-0.3,0.5-0.5,0.7s-0.5,0.4-0.8,0.5
			c-0.3,0.1-0.8,0.2-1.2,0.2c-0.2,0-0.3,0-0.5,0c-0.2,0-0.4-0.1-0.5-0.1c-0.2,0-0.4-0.1-0.6-0.1s-0.4-0.1-0.6-0.2L111.3,31.7z"/>
		<path class="st0" d="M121.7,34.1c-0.5,0-1-0.1-1.4-0.3c-0.4-0.2-0.8-0.5-1.1-0.8c-0.3-0.3-0.5-0.7-0.7-1.2c-0.1-0.5-0.2-1-0.2-1.5
			c0-0.5,0.1-1,0.2-1.5c0.2-0.5,0.4-0.9,0.7-1.2c0.3-0.3,0.6-0.6,1.1-0.8c0.4-0.2,0.9-0.3,1.4-0.3c0.6,0,1.1,0.1,1.5,0.3
			s0.8,0.5,1.1,0.8s0.5,0.8,0.6,1.2s0.2,1,0.2,1.5c0,0.3,0,0.6-0.1,0.9s-0.1,0.6-0.3,0.9s-0.3,0.5-0.5,0.8c-0.2,0.2-0.4,0.5-0.7,0.6
			c-0.3,0.2-0.5,0.3-0.9,0.4C122.5,34,122.1,34.1,121.7,34.1z M121.8,33.7c0.4,0,0.7-0.1,1-0.3c0.3-0.2,0.5-0.4,0.7-0.7
			s0.3-0.6,0.4-1c0.1-0.4,0.1-0.8,0.1-1.3c0-0.5,0-1-0.1-1.5s-0.2-0.8-0.4-1.1s-0.5-0.6-0.8-0.7s-0.7-0.3-1.1-0.3
			c-0.4,0-0.7,0.1-1,0.3c-0.3,0.2-0.5,0.4-0.7,0.7c-0.2,0.3-0.3,0.6-0.4,1c-0.1,0.4-0.1,0.8-0.1,1.2c0,0.5,0,1,0.1,1.5
			s0.2,0.8,0.4,1.2c0.2,0.3,0.5,0.6,0.8,0.8S121.4,33.7,121.8,33.7z"/>
		<path class="st0" d="M127,33.6l0.7-0.1c0.1,0,0.1-0.1,0.2-0.1s0.1-0.1,0.1-0.2v-5.9c0-0.1,0-0.2-0.1-0.2c0-0.1-0.1-0.1-0.2-0.1
			l-0.7-0.1v-0.3h2.7c0.4,0,0.7,0,1,0.1s0.5,0.1,0.7,0.2s0.4,0.2,0.5,0.3c0.1,0.1,0.2,0.2,0.3,0.4c0.1,0.1,0.1,0.3,0.2,0.4
			c0,0.1,0,0.3,0,0.4c0,0.3-0.1,0.6-0.2,0.8c-0.1,0.2-0.2,0.4-0.4,0.6s-0.3,0.3-0.5,0.4c-0.2,0.1-0.4,0.2-0.5,0.2l2,2.7
			c0,0,0.1,0.1,0.1,0.1c0,0,0.1,0.1,0.1,0.1s0.1,0.1,0.2,0.1c0.1,0,0.1,0.1,0.1,0.1l0.6,0.1v0.3h-1.1c-0.2,0-0.3,0-0.4,0
			c-0.1,0-0.2-0.1-0.3-0.1c-0.1-0.1-0.2-0.1-0.2-0.2c-0.1-0.1-0.1-0.2-0.2-0.3l-1.9-2.6l-0.9-0.2v2.7c0,0.1,0,0.1,0.1,0.2
			c0,0.1,0.1,0.1,0.2,0.1l0.8,0.1v0.3H127V33.6z M128.9,30.1c0,0,0.1,0,0.2,0s0.1,0,0.2,0c0.1,0,0.2,0,0.2,0c0.1,0,0.1,0,0.2,0
			c0.3,0,0.5,0,0.7-0.1c0.2-0.1,0.4-0.2,0.5-0.4s0.2-0.3,0.3-0.5c0.1-0.2,0.1-0.4,0.1-0.6c0-0.3,0-0.5-0.1-0.7
			c-0.1-0.2-0.2-0.4-0.3-0.5c-0.1-0.1-0.3-0.2-0.5-0.3c-0.2-0.1-0.5-0.1-0.7-0.1h-0.7V30.1z"/>
		<path class="st0" d="M136.4,33.6l0.8-0.1c0.1,0,0.1-0.1,0.2-0.1c0-0.1,0.1-0.1,0.1-0.2v-6.2h-1.7c-0.1,0-0.1,0-0.2,0.1
			c0,0-0.1,0.1-0.1,0.1l-0.4,1.2h-0.3v-1.8h6.2v1.8h-0.3l-0.4-1.2c0-0.1,0-0.1-0.1-0.1c0,0-0.1-0.1-0.1-0.1h-1.7v6.2
			c0,0.1,0,0.2,0.1,0.2c0,0.1,0.1,0.1,0.2,0.1l0.8,0.1v0.3h-3V33.6z"/>
		<path class="st0" d="M142.9,31.7h0.3l0.4,1.1c0,0,0.1,0.1,0.1,0.1c0.1,0.1,0.1,0.1,0.1,0.1c0.1,0.1,0.3,0.2,0.4,0.2
			s0.3,0.1,0.4,0.2c0.1,0,0.3,0.1,0.4,0.1c0.1,0,0.3,0,0.4,0c0.2,0,0.4,0,0.6-0.1c0.2-0.1,0.3-0.2,0.5-0.3c0.1-0.1,0.2-0.3,0.3-0.5
			c0.1-0.2,0.1-0.4,0.1-0.6c0-0.3-0.1-0.6-0.3-0.8s-0.4-0.4-0.7-0.5c-0.1-0.1-0.3-0.1-0.4-0.1c-0.1,0-0.3-0.1-0.4-0.1
			c-0.1,0-0.3-0.1-0.4-0.1c-0.1,0-0.3-0.1-0.4-0.1c-0.4-0.2-0.7-0.4-0.9-0.7s-0.3-0.7-0.3-1.1c0-0.3,0.1-0.6,0.2-0.9
			s0.3-0.5,0.5-0.7s0.5-0.4,0.7-0.5s0.6-0.2,0.9-0.2c0.2,0,0.4,0,0.5,0c0.2,0,0.4,0,0.5,0.1s0.3,0.1,0.5,0.1c0.2,0,0.3,0.1,0.5,0.1
			v1.7h-0.3l-0.4-1c0-0.1,0-0.1-0.1-0.1c0,0-0.1-0.1-0.1-0.1c-0.1-0.1-0.2-0.1-0.3-0.2c-0.1,0-0.2-0.1-0.3-0.1s-0.2-0.1-0.3-0.1
			c-0.1,0-0.2,0-0.3,0c-0.2,0-0.4,0-0.6,0.1s-0.3,0.1-0.4,0.2c-0.1,0.1-0.2,0.2-0.3,0.4c-0.1,0.1-0.1,0.3-0.1,0.5c0,0.1,0,0.3,0,0.4
			c0,0.1,0.1,0.3,0.2,0.4c0.1,0.1,0.2,0.2,0.3,0.3c0.1,0.1,0.3,0.2,0.5,0.3c0.1,0,0.3,0.1,0.4,0.1c0.1,0,0.3,0.1,0.4,0.1
			c0.1,0,0.3,0.1,0.4,0.1c0.1,0,0.3,0.1,0.4,0.2c0.2,0.1,0.3,0.1,0.5,0.2c0.2,0.1,0.3,0.2,0.4,0.3s0.2,0.3,0.3,0.5
			c0.1,0.2,0.1,0.4,0.1,0.7c0,0.3-0.1,0.6-0.2,0.8c-0.1,0.3-0.3,0.5-0.5,0.7s-0.5,0.4-0.8,0.5c-0.3,0.1-0.8,0.2-1.2,0.2
			c-0.2,0-0.3,0-0.5,0c-0.2,0-0.3-0.1-0.5-0.1c-0.2,0-0.4-0.1-0.6-0.1c-0.2-0.1-0.4-0.1-0.6-0.2L142.9,31.7z"/>
	</g>
</g>
<g id="Shape_44_copy_1_" class="st1">
	<g id="Shape_44_copy">
		<g>
			<path d="M22.4,3.4L18,7.7l-0.3,0.7c0,0.5-0.2,0.9-0.5,1.2l0,0c-0.3,0.3-0.7,0.5-1.2,0.5c-0.5,0-0.9-0.2-1.2-0.5l0,0
				c-0.3-0.3-0.5-0.7-0.5-1.2c0-0.4,0.1-0.8,0.4-1.1h0c0.2-0.3,0.6-0.5,0.9-0.6l0.6-1.4L12.8,0h-1.6L7.8,5.3l0.6,1.4
				C8.8,6.8,9.1,7,9.3,7.3C9.6,7.6,9.7,8,9.7,8.4c0,0.5-0.2,0.9-0.5,1.2l0,0C8.9,9.9,8.4,10.1,8,10.1c-0.5,0-0.9-0.2-1.2-0.5l0,0
				C6.4,9.3,6.2,8.9,6.2,8.4L6,7.7L1.6,3.4L0,4v9.8l0,0.1L0,14v9.2l0,0.1c0.4,3.1,1.8,5.8,3.9,7.9c2.1,2.1,4.9,3.5,8,3.8h0.2
				c3.1-0.4,5.9-1.7,8-3.8c2.1-2.1,3.5-4.8,3.9-7.9l0-0.1V4L22.4,3.4z M12.8,33c-0.2,0-0.5,0.1-0.8,0.1c-2.6-0.3-5-1.5-6.8-3.3
				c-0.9-0.9-1.7-2-2.3-3.1c0.7-1.7,1.6-3.1,2.8-4.2c1.4-1.2,3.2-2,5.8-2.4l0.8-0.1l0-0.8c0-0.3,0-0.6,0-0.9l4.7,4.7
				c0,0,0,0.1,0,0.1c0,0.1,0,0.2,0,0.3l-0.1,0.4l0.2,0.3c0.4,0.7,0.6,1.2,0.5,1.7c0,0.1,0,0.3-0.1,0.4c-0.2-0.2-0.3-0.3-0.5-0.4
				c-0.4-0.3-0.9-0.5-1.4-0.7c-0.8-0.2-1.5-0.1-2.1,0.2c-0.7,0.4-1.2,1-1.5,1.8c-0.3,0.7-0.4,1.6-0.4,2.4C11.9,30.8,12.2,32,12.8,33
				z M22.1,23.1c-0.4,2.6-1.6,5-3.4,6.7c-1.2,1.2-2.6,2.1-4.2,2.6c-0.6-0.9-0.9-1.9-0.9-2.9c0-0.6,0.1-1.2,0.3-1.7
				c0.2-0.4,0.4-0.7,0.7-0.9c0.2-0.1,0.4-0.1,0.7-0.1h0c0.2,0.1,0.5,0.2,0.8,0.4c0.3,0.2,0.6,0.5,0.9,0.9l0.6,0.6l0.7-0.5
				c0.8-0.6,1.3-1.4,1.3-2.3c0.1-0.8-0.2-1.6-0.6-2.5c0-0.2,0-0.3,0-0.5c0-0.3-0.1-0.6-0.2-0.8L18.8,22c-2.2-2.2-4.5-4.5-6.7-6.7
				l-0.6,0.9c-0.3,0.4-0.5,0.9-0.7,1.5c-0.1,0.3-0.1,0.6-0.1,0.9C8,19,6.1,19.9,4.6,21.2c-1.1,0.9-1.9,1.9-2.5,3.1
				c-0.1-0.4-0.2-0.8-0.2-1.2v-8.3h20.3V23.1z M22.1,13H1.8V6.3l2.5,2.5c0.1,0.8,0.5,1.6,1,2.1l0,0C6.1,11.6,7,12,8,12
				c1,0,1.9-0.4,2.5-1v0c0.6-0.6,1-1.5,1-2.5c0-0.8-0.3-1.6-0.8-2.2c-0.2-0.3-0.5-0.6-0.8-0.8l2-3.2l2,3.2c-0.3,0.2-0.6,0.5-0.8,0.8
				l0,0c-0.5,0.6-0.8,1.4-0.8,2.2c0,1,0.4,1.9,1,2.5h0c0.6,0.6,1.5,1,2.5,1c1,0,1.9-0.4,2.5-1l0,0c0.6-0.6,0.9-1.3,1-2.1l2.5-2.5V13
				z"/>
		</g>
	</g>
</g>
</svg>
