<svg height="32" viewBox="0 0 140 32" width="140" xmlns="http://www.w3.org/2000/svg">
    <path d="m30.72 13.989v1.554s0 .823.091 1.189.091.64.091.823.091.366.091.549h-2.56c0-.183.091-.366.091-.549s.091-.457.091-.823.091-.731.091-1.189 0-1.006 0-1.554v-6.949c0-.64 0-1.097 0-1.554s0-.823-.091-1.189.091-.64 0-.823-.091-.457-.091-.549h.457.457s.366 0 .549 0c.274 0 .64 0 1.097-.091s1.097-.091 1.829-.091c.731 0 1.28.091 1.92.274s1.097.457 1.554.823.731.823 1.006 1.28.366 1.097.366 1.737c0 .549-.091 1.006-.183 1.463s-.274.823-.549 1.189-.549.64-.823.914-.731.549-1.097.731l3.749 5.303c.183.274.366.457.549.731s.274.366.457.457.274.274.457.366.274.183.457.183h-3.109c0-.091-.091-.274-.183-.549s-.274-.457-.457-.64l-3.749-5.303c-.183 0-.366 0-.457 0s-.366 0-.549 0-.366 0-.64 0-.366 0-.64-.091v2.377zm0-3.2c.183 0 .366.091.549.091s.366 0 .549 0c.549 0 1.006-.091 1.463-.274s.823-.366 1.097-.731.549-.731.731-1.189.274-1.097.274-1.737c0-.549-.091-1.006-.183-1.463s-.183-.823-.457-1.097-.549-.549-.914-.731c-.366-.183-.823-.274-1.28-.274s-.914 0-1.189.091-.457.091-.64.183z"
          fill="#fff"/>
    <path d="m50.651 2.56c1.189 0 2.286.183 3.291.549s1.92.914 2.651 1.646 1.28 1.554 1.737 2.56.64 2.103.64 3.291c0 .64-.091 1.371-.274 2.011s-.366 1.28-.731 1.829-.64 1.097-1.097 1.646-.914.914-1.554 1.28-1.189.64-1.92.823-1.463.274-2.194.274c-1.189 0-2.286-.183-3.291-.549s-1.92-.914-2.651-1.646-1.28-1.554-1.737-2.56-.549-2.011-.549-3.2c0-.64.091-1.371.274-2.011s.366-1.28.731-1.92.64-1.097 1.097-1.646.914-.914 1.554-1.28 1.189-.64 1.92-.823 1.371-.274 2.103-.274zm.64 14.994c.823 0 1.554-.183 2.194-.457s1.189-.731 1.737-1.28.823-1.189 1.097-2.011.366-1.646.366-2.651c0-1.097-.091-2.103-.366-3.017s-.64-1.737-1.189-2.377-1.097-1.189-1.829-1.646-1.646-.549-2.651-.549c-.823 0-1.554.183-2.194.457s-1.189.731-1.737 1.189-.731 1.189-1.006 1.92-.366 1.646-.366 2.651c0 1.097.091 2.103.366 3.017s.64 1.737 1.097 2.469 1.097 1.28 1.92 1.646 1.554.64 2.56.64z"
          fill="#fff"/>
    <path d="m62.811 18.103c.091-.091.183-.274.274-.549s.183-.549.274-.823c.091-.457.183-1.097.274-1.646s.183-1.28.274-2.011.183-1.371.274-2.103.183-1.463.274-2.103.183-1.371.274-2.011.183-1.28.274-1.737.091-1.006.183-1.371.091-.731.091-.914h1.371l6.766 12.617 6.674-12.617h1.006l1.737 12.709c.091.366.091.731.183 1.006s.091.549.183.731.091.366.183.549.091.274.183.366h-2.743c0-.091.091-.183.091-.366s.091-.366.091-.64c0-.091 0-.183 0-.274s0-.183 0-.274l-1.463-10.423-6.309 11.886-.731-.091-6.4-11.886c-.274 1.737-.457 3.291-.64 4.663-.091.64-.183 1.189-.274 1.829s-.183 1.189-.183 1.737-.091 1.006-.183 1.371-.091.731-.091.914v.64s0 .366 0 .457c0 .183 0 .274.091.366h-2.011z"
          fill="#fff"/>
    <path d="m88.137 18.103c0-.183.091-.366.091-.549s.091-.457.091-.823.091-.731.091-1.189 0-1.006 0-1.554v-6.949c0-.64 0-1.097 0-1.554s0-.823-.091-1.189c0-.366-.091-.64-.091-.823s-.091-.366-.091-.549h2.56c0 .183-.091.366-.091.549s-.091.457-.091.823c0 .274 0 .64-.091 1.097v1.554 6.949 1.554s0 .823.091 1.189c0 .366.091.64.091.823s.091.366.091.549l-2.56.091z"
          fill="#fff"/>
    <path d="m96.731 2.834 11.063 11.703v-7.497c0-.64 0-1.097 0-1.554s0-.823-.091-1.189-.091-.64-.091-.823-.091-.366-.091-.549h1.92c0 .183-.091.366-.091.549s-.091.457-.091.823-.091.731-.091 1.189 0 1.006 0 1.554v11.337h-.366l-11.154-11.703v7.314 1.554s0 .823.091 1.189.091.64.091.823.091.366.091.549h-1.92c0-.183.091-.366.091-.549s.091-.457.091-.823.091-.731.091-1.189 0-1.006 0-1.554v-6.949c0-.64 0-1.097 0-1.554s0-.823-.091-1.189-.091-.64-.091-.823-.091-.366-.091-.549h.731z"
          fill="#fff"/>
    <path d="m125.166 18.194c0-.091 0-.091 0-.183s0-.091 0-.183c0-.183 0-.457-.091-.731s-.183-.64-.366-1.006l-1.28-2.926c-.366 0-.914 0-1.554 0s-1.371 0-2.194 0c-.549 0-1.097 0-1.646 0s-1.006 0-1.463 0l-1.189 2.834c-.091.274-.183.549-.366.823s-.183.64-.183.914v.274s0 .091 0 .091h-2.194c.091-.091.274-.366.457-.731s.366-.823.64-1.28l6.126-13.623h.823l5.851 13.074c.091.274.274.64.457.914s.274.549.457.731.274.457.366.549.183.274.183.274h-2.834zm-6.949-6.034h1.28s.823 0 1.28 0 .823 0 1.189 0 .731 0 1.006 0l-3.017-6.766-2.926 6.857h1.189z"
          fill="#fff"/>
    <path d="m133.851 17.28c.823 0 1.646 0 2.286-.091s1.28-.183 1.829-.274c.64-.091 1.189-.183 1.646-.366l-.274 1.737c-.091 0-.183 0-.366 0s-.366 0-.549 0-.457 0-.64 0c-.274 0-.457 0-.64 0s-.366 0-.549 0-.274 0-.366 0h-4.663c0-.183.091-.366.091-.549s.091-.457.091-.823.091-.731.091-1.189 0-1.006 0-1.554v-7.131c0-.64 0-1.097 0-1.554s0-.823-.091-1.189c0-.366-.091-.64-.091-.823s-.091-.366-.091-.549h2.56c0 .183-.091.366-.091.549s-.091.457-.091.823-.091.731-.091 1.189 0 1.006 0 1.554v10.24z"
          fill="#fff"/>
    <g fill="#d6d6d6">
        <path d="m28.16 30.72.64-.091c.091 0 .091-.091.183-.091 0-.091.091-.091.091-.183v-5.394c0-.091 0-.183-.091-.183 0-.091-.091-.091-.183-.091l-.64-.091v-.274h2.56v.274l-.64.091c-.091 0-.091.091-.183.091s-.091.091-.091.183v2.377h3.291v-2.377c0-.091 0-.091-.091-.183 0-.091-.091-.091-.183-.091l-.64-.091v-.274h2.56v.274l-.64.091c-.091 0-.091.091-.183.091 0 .091-.091.091-.091.183v5.394c0 .091 0 .183.091.183 0 .091.091.091.183.091l.64.091v.274h-2.56v-.274l.64-.091c.091 0 .091-.091.183-.091 0-.091.091-.091.091-.183v-2.651h-3.291v2.651c0 .091 0 .183.091.183 0 .091.091.091.183.091l.64.091v.274h-2.56z"/>
        <path d="m39.68 31.177c-.457 0-.914-.091-1.28-.274s-.731-.457-1.006-.731c-.274-.274-.457-.64-.64-1.097-.091-.457-.183-.914-.183-1.371s.091-.914.183-1.371c.183-.457.366-.823.64-1.097s.549-.549 1.006-.731.823-.274 1.28-.274c.549 0 1.006.091 1.371.274s.731.457 1.006.731c.274.274.457.731.549 1.097.091.457.183.914.183 1.371 0 .274 0 .549-.091.823s-.091.549-.274.823c-.091.274-.274.549-.457.731s-.366.457-.64.549-.457.274-.823.366c-.091.091-.457.183-.823.183zm.091-.366c.366 0 .64-.091.914-.274s.457-.366.64-.64.274-.549.366-.914c.091-.366.091-.731.091-1.189s0-.914-.091-1.371-.183-.731-.366-1.006c-.183-.274-.457-.549-.731-.64-.274-.183-.64-.274-1.006-.274s-.64.091-.914.274-.457.366-.64.64-.274.549-.366.914c-.091.366-.091.731-.091 1.097 0 .457 0 .914.091 1.371s.183.731.366 1.097c.183.274.457.549.731.731.274.091.64.183 1.006.183z"/>
        <path d="m45.897 30.72.731-.091c.091 0 .091-.091.183-.091 0-.091.091-.091.091-.183v-5.669h-1.554c-.091 0-.091 0-.183.091 0 0-.091.091-.091.091l-.366 1.097h-.274v-1.646h5.669v1.646h-.274l-.366-1.097c0-.091 0-.091-.091-.091s-.091-.091-.091-.091h-1.554v5.669c0 .091 0 .183.091.183 0 .091.091.091.183.091l.731.091v.274h-2.743v-.274z"/>
        <path d="m51.749 30.72.64-.091c.091 0 .091-.091.183-.091 0-.091.091-.091.091-.183v-5.394c0-.091 0-.183-.091-.183 0-.091-.091-.091-.183-.091l-.64-.091v-.274h4.937v1.554h-.274l-.366-1.006c0-.091 0-.091-.091-.091s-.091-.091-.091-.091h-2.377v2.651h1.554.183s.091-.091.091-.091l.274-.823h.274v2.286h-.274l-.274-.823c0-.091 0-.091-.091-.091 0 0-.091-.091-.183-.091h-1.554v2.926h2.743c.091 0 .091 0 .091-.091 0 0 .091-.091.091-.091l.366-1.189h.274v1.737h-5.303v-.274z"/>
        <path d="m58.697 30.72.64-.091c.091 0 .091-.091.183-.091 0-.091.091-.091.091-.183v-5.394c0-.091 0-.183-.091-.183 0-.091-.091-.091-.183-.091l-.64-.091v-.274h2.651v.274l-.64.091c-.091 0-.091.091-.183.091 0 .091-.091.091-.091.183v5.669h2.469.091s0 0 .091-.091v-.091s0-.091 0-.091l.366-1.28h.274v1.92h-5.029v-.274z"/>
        <path d="m65.371 28.983h.274l.366 1.006s.091.091.091.091c.091.091.091.091.091.091.091.091.274.183.366.183.091.091.274.091.366.183.091 0 .274.091.366.091s.274 0 .366 0c.183 0 .366 0 .549-.091s.274-.183.457-.274c.091-.091.183-.274.274-.457s.091-.366.091-.549c0-.274-.091-.549-.274-.731s-.366-.366-.64-.457c-.091-.091-.274-.091-.366-.091s-.274-.091-.366-.091-.274-.091-.366-.091-.274-.091-.366-.091c-.366-.183-.64-.366-.823-.64s-.274-.64-.274-1.006c0-.274.091-.549.183-.823s.274-.457.457-.64.457-.366.64-.457.549-.183.823-.183h.457s.366 0 .457.091c.183 0 .274.091.457.091s.274.091.457.091v1.554h-.274l-.366-.914c0-.091-.091-.091-.091-.091s-.091-.091-.091-.091-.183-.091-.274-.183-.091.183-.274.183c-.091 0-.183-.091-.274-.091s-.183 0-.274 0-.366 0-.549.091-.274.091-.366.183c-.091.091-.183.183-.274.366-.091.091-.091.274-.091.457v.366s.091.274.183.366.183.183.274.274.274.183.457.274c.091 0 .274.091.366.091s.274.091.366.091.274.091.366.091.274.091.366.183c.183.091.274.091.457.183s.274.183.366.274.183.274.274.457.091.366.091.64-.091.549-.183.731c-.091.274-.274.457-.457.64s-.457.366-.731.457-.731.183-1.097.183c-.183 0-.274 0-.457 0s-.366-.091-.457-.091c-.183 0-.366-.091-.549-.091-.183-.091-.366-.091-.549-.183v-1.646z"/>
        <path d="m77.074 27.337c-.183-.183-.366-.366-.549-.549-.091-.183-.274-.274-.274-.457-.091-.091-.091-.274-.091-.366s0-.274 0-.366c0-.183.091-.457.183-.64s.274-.366.457-.457.366-.183.549-.274.457-.091.64-.091c.274 0 .457 0 .64.091s.366.183.549.274.274.274.366.366.091.366.091.549c0 .274 0 .457-.091.64s-.183.366-.274.549l-1.097.731 1.829 1.829c.091-.091.183-.274.274-.457s.183-.274.183-.457.091-.274.091-.366 0-.183 0-.274l-.914-.183v-.274h2.377v.274l-.64.091c-.091 0-.091.091-.183.091 0 .091-.091.091-.091.183-.091.183-.183.274-.274.457s-.183.274-.274.366c-.091.091-.183.274-.274.366s-.183.274-.274.366l.823.823s.091.091.091.091c.091 0 .091.091.183.091s.091.091.183.091c.091 0 .091.091.183.091l.549.091v.274h-1.006c-.183 0-.274 0-.366 0s-.183 0-.274-.091c-.091 0-.183-.091-.183-.183s-.183-.183-.274-.274l-.366-.366c-.183.183-.274.366-.457.457-.183.183-.366.274-.549.366s-.366.183-.549.183-.366.091-.64.091-.549 0-.731-.091c-.274-.091-.457-.183-.64-.366s-.274-.366-.457-.549c-.091-.183-.183-.457-.183-.731 0-.091 0-.183 0-.366 0-.091.091-.274.091-.366.091-.091.091-.183.183-.366s.091-.183.183-.274l1.28-.64zm.275.274c-.183.091-.274.183-.366.274s-.183.183-.274.366-.091.274-.183.457-.091.366-.091.549 0 .366.091.549.183.274.274.366c.091.091.274.183.366.274s.366.091.549.091h.549s.274-.091.457-.091c.183-.091.274-.091.366-.183s.274-.183.366-.366l-2.103-2.286zm.457-.548c.183-.091.366-.183.457-.366.091-.091.183-.274.274-.366s.091-.274.183-.457c0-.183 0-.274 0-.457 0-.274-.091-.549-.274-.731s-.366-.274-.64-.274c-.091 0-.274 0-.366.091s-.183.091-.274.183c-.091.091-.183.183-.183.274-.091.091-.091.274-.091.366s0 .274 0 .366c0 .091.091.274.183.366s.183.274.274.366.366.457.457.64z"/>
        <path d="m87.223 30.72.64-.091c.091 0 .091-.091.183-.091 0-.091.091-.091.091-.183v-5.394c0-.091 0-.183-.091-.183 0-.091-.091-.091-.183-.091l-.64-.091v-.274h2.469c.366 0 .64 0 .914.091s.457.091.64.183c.183.091.366.183.457.274s.183.183.274.366c.091.091.091.274.183.366s0 .274 0 .366c0 .274-.091.549-.183.731s-.183.366-.366.549-.274.274-.457.366-.366.183-.457.183l1.829 2.469s.091.091.091.091.091.091.091.091.091.091.183.091.091.091.091.091l.549.091v.274h-1.006c-.183 0-.274 0-.366 0s-.183-.091-.274-.091-.183-.091-.183-.183-.091-.183-.183-.274l-1.737-2.377-.823-.183v2.469c0 .091 0 .091.091.183 0 .091.091.091.183.091l.731.091v.274h-2.651v-.274zm1.737-3.2h.183s.091 0 .183 0 .183 0 .183 0 .091 0 .183 0c.274 0 .457 0 .64-.091s.366-.183.457-.366c.091-.091.183-.274.274-.457s.091-.366.091-.549c0-.274 0-.457-.091-.64s-.183-.366-.274-.457-.274-.183-.457-.274-.457-.091-.64-.091h-.64v2.926z"/>
        <path d="m94.629 30.72.64-.091c.091 0 .091-.091.183-.091 0-.091.091-.091.091-.183v-5.394c0-.091 0-.183-.091-.183 0-.091-.091-.091-.183-.091l-.64-.091v-.274h4.937v1.554h-.274l-.366-1.006c0-.091 0-.091-.091-.091s-.091-.091-.091-.091h-2.377v2.651h1.554.183s.091-.091.091-.091l.274-.823h.274v2.286h-.274l-.274-.823c0-.091 0-.091-.091-.091 0 0-.091-.091-.183-.091h-1.554v2.926h2.743c.091 0 .091 0 .091-.091s.091-.091.091-.091l.366-1.189h.274v1.737h-5.303v-.274z"/>
        <path d="m101.76 28.983h.274l.366 1.006s.091.091.091.091c.091.091.091.091.091.091.091.091.274.183.366.183.091.091.274.091.366.183.091 0 .274.091.366.091s.274 0 .366 0c.183 0 .366 0 .549-.091s.274-.183.457-.274c.091-.091.183-.274.274-.457s.091-.366.091-.549c0-.274-.091-.549-.274-.731s-.366-.366-.64-.457c-.091-.091-.274-.091-.366-.091s-.274-.091-.366-.091c-.091 0-.274-.091-.366-.091s-.274-.091-.366-.091c-.366-.183-.64-.366-.823-.64s-.274-.64-.274-1.006c0-.274.091-.549.183-.823s.274-.457.457-.64.457-.366.64-.457.549-.183.823-.183h.457s.366 0 .457.091c.183 0 .274.091.457.091s.274.091.457.091v1.554h-.274l-.366-.914c0-.091-.091-.091-.091-.091s-.091-.091-.091-.091-.183-.091-.274-.183-.183-.091-.274-.091-.183-.091-.274-.091-.183 0-.274 0c-.183 0-.366 0-.549.091s-.274.091-.366.183c-.091.091-.183.183-.274.366-.091.091-.091.274-.091.457v.366s.091.274.183.366c.091.091.183.183.274.274s.274.183.457.274c.091 0 .274.091.366.091s.274.091.366.091.274.091.366.091.274.091.366.183c.183.091.274.091.457.183s.274.183.366.274c.091.091.183.274.274.457s.091.366.091.64-.091.549-.183.731c-.091.274-.274.457-.457.64s-.457.366-.731.457-.731.183-1.097.183c-.183 0-.274 0-.457 0s-.366-.091-.457-.091c-.183 0-.366-.091-.549-.091-.183-.091-.366-.091-.549-.183v-1.371z"/>
        <path d="m111.269 31.177c-.457 0-.914-.091-1.28-.274s-.731-.457-1.006-.731c-.274-.274-.457-.64-.64-1.097-.091-.457-.183-.914-.183-1.371s.091-.914.183-1.371c.183-.457.366-.823.64-1.097s.549-.549 1.006-.731c.366-.183.823-.274 1.28-.274.549 0 1.006.091 1.371.274s.731.457 1.006.731c.274.274.457.731.549 1.097.091.457.183.914.183 1.371 0 .274 0 .549-.091.823s-.091.549-.274.823c-.091.274-.274.549-.457.731s-.366.457-.64.549c-.274.183-.457.274-.823.366-.091.091-.457.183-.823.183zm.091-.366c.366 0 .64-.091.914-.274s.457-.366.64-.64.274-.549.366-.914c.091-.366.091-.731.091-1.189s0-.914-.091-1.371-.183-.731-.366-1.006c-.183-.274-.457-.549-.731-.64-.274-.183-.64-.274-1.006-.274s-.64.091-.914.274-.457.366-.64.64-.274.549-.366.914c-.091.366-.091.731-.091 1.097 0 .457 0 .914.091 1.371s.183.731.366 1.097.457.549.731.731c.274.091.64.183 1.006.183z"/>
        <path d="m116.114 30.72.64-.091c.091 0 .091-.091.183-.091 0-.091.091-.091.091-.183v-5.394c0-.091 0-.183-.091-.183 0-.091-.091-.091-.183-.091l-.64-.091v-.274h2.469c.366 0 .64 0 .914.091s.457.091.64.183c.183.091.366.183.457.274s.183.183.274.366c.091.091.091.274.183.366s0 .274 0 .366c0 .274-.091.549-.183.731s-.183.366-.366.549-.274.274-.457.366c-.183.091-.366.183-.457.183l1.829 2.469s.091.091.091.091.091.091.091.091.091.091.183.091.091.091.091.091l.549.091v.274h-1.006c-.183 0-.274 0-.366 0s-.183-.091-.274-.091-.183-.091-.183-.183c-.091-.091-.091-.183-.183-.274l-1.737-2.377-.823-.183v2.469c0 .091 0 .091.091.183 0 .091.091.091.183.091l.731.091v.274h-2.743v-.274zm1.737-3.2h.183s.091 0 .183 0 .183 0 .183 0 .091 0 .183 0c.274 0 .457 0 .64-.091s.366-.183.457-.366.183-.274.274-.457.091-.366.091-.549c0-.274 0-.457-.091-.64s-.183-.366-.274-.457-.274-.183-.457-.274-.457-.091-.64-.091h-.64v2.926z"/>
        <path d="m124.709 30.72.731-.091c.091 0 .091-.091.183-.091 0-.091.091-.091.091-.183v-5.669h-1.554c-.091 0-.091 0-.183.091 0 0-.091.091-.091.091l-.366 1.097h-.274v-1.646h5.669v1.646h-.274l-.366-1.097c0-.091 0-.091-.091-.091s-.091-.091-.091-.091h-1.554v5.669c0 .091 0 .183.091.183 0 .091.091.091.183.091l.731.091v.274h-2.743v-.274z"/>
        <path d="m130.651 28.983h.274l.366 1.006s.091.091.091.091c.091.091.091.091.091.091.091.091.274.183.366.183.091.091.274.091.366.183.091 0 .274.091.366.091s.274 0 .366 0c.183 0 .366 0 .549-.091s.274-.183.457-.274c.091-.091.183-.274.274-.457s.091-.366.091-.549c0-.274-.091-.549-.274-.731s-.366-.366-.64-.457c-.091-.091-.274-.091-.366-.091s-.274-.091-.366-.091c-.091 0-.274-.091-.366-.091s-.274-.091-.366-.091c-.366-.183-.64-.366-.823-.64s-.274-.64-.274-1.006c0-.274.091-.549.183-.823s.274-.457.457-.64.457-.366.64-.457.549-.183.823-.183h.457c.183 0 .366 0 .457.091.183 0 .274.091.457.091s.274.091.457.091v1.554h-.274l-.366-.914c0-.091 0-.091-.091-.091 0 0-.091-.091-.091-.091-.091-.091-.183-.091-.274-.183-.091 0-.183-.091-.274-.091s-.183-.091-.274-.091-.183 0-.274 0c-.183 0-.366 0-.549.091s-.274.091-.366.183c-.091.091-.183.183-.274.366-.091.091-.091.274-.091.457v.366s.091.274.183.366c.091.091.183.183.274.274s.274.183.457.274c.091 0 .274.091.366.091s.274.091.366.091c.091 0 .274.091.366.091s.274.091.366.183c.183.091.274.091.457.183s.274.183.366.274.183.274.274.457.091.366.091.64-.091.549-.183.731c-.091.274-.274.457-.457.64s-.457.366-.731.457-.731.183-1.097.183c-.183 0-.274 0-.457 0s-.274-.091-.457-.091-.366-.091-.549-.091c-.183-.091-.366-.091-.549-.183v-1.371z"/>
    </g>
    <path d="m20.48 3.109-4.023 3.931-.274.64c0 .457-.183.823-.457 1.097-.274.274-.64.457-1.097.457s-.823-.183-1.097-.457c-.274-.274-.457-.64-.457-1.097 0-.366.091-.731.366-1.006.183-.274.549-.457.823-.549l.549-1.28-3.109-4.846h-1.463l-3.109 4.846.549 1.28c.366.091.64.274.823.549.274.274.366.64.366 1.006 0 .457-.183.823-.457 1.097-.274.274-.731.457-1.097.457-.457 0-.823-.183-1.097-.457-.366-.274-.549-.64-.549-1.097l-.183-.64-4.023-3.931-1.463.549v17.646c.366 2.834 1.646 5.303 3.566 7.223s4.48 3.2 7.314 3.474h.183c2.834-.366 5.394-1.554 7.314-3.474s3.2-4.389 3.566-7.223v-17.646l-1.463-.549zm-8.777 27.062c-.183 0-.457.091-.731.091-2.377-.274-4.571-1.371-6.217-3.017-.823-.823-1.554-1.829-2.103-2.834.64-1.554 1.463-2.834 2.56-3.84 1.28-1.097 2.926-1.829 5.303-2.194l.731-.091v-.731c0-.274 0-.549 0-.823l4.297 4.297v.091.274l-.091.366.183.274c.366.64.549 1.097.457 1.554 0 .091 0 .274-.091.366-.183-.183-.274-.274-.457-.366-.366-.274-.823-.457-1.28-.64-.731-.183-1.371-.091-1.92.183-.64.366-1.097.914-1.371 1.646-.274.64-.366 1.463-.366 2.194.274 1.189.549 2.286 1.097 3.2zm8.503-9.051c-.366 2.377-1.463 4.571-3.109 6.126-1.097 1.097-2.377 1.92-3.84 2.377-.549-.823-.823-1.737-.823-2.651 0-.549.091-1.097.274-1.554.183-.366.366-.64.64-.823.183-.091.366-.091.64-.091.183.091.457.183.731.366s.549.457.823.823l.549.549.64-.457c.731-.549 1.189-1.28 1.189-2.103.091-.731-.183-1.463-.549-2.286 0-.183 0-.274 0-.457 0-.274-.091-.549-.183-.731v-.091c-2.011-2.011-4.114-4.114-6.126-6.126l-.549.823c-.274.366-.457.823-.64 1.371-.091.274-.091.549-.091.823-2.469.366-4.206 1.189-5.577 2.377-1.006.823-1.737 1.737-2.286 2.834-.091-.366-.183-.731-.183-1.097v-7.589h18.56v7.589zm0-9.234h-18.56v-6.126l2.286 2.286c.091.731.457 1.463.914 1.92.731.64 1.554 1.006 2.469 1.006s1.737-.366 2.286-.914c.549-.549.914-1.371.914-2.286 0-.731-.274-1.463-.731-2.011-.183-.274-.457-.549-.731-.731l1.829-2.926 1.829 2.926c-.274.183-.549.457-.731.731-.457.549-.731 1.28-.731 2.011 0 .914.366 1.737.914 2.286.549.549 1.371.914 2.286.914s1.737-.366 2.286-.914c.549-.549.823-1.189.914-1.92l2.286-2.286v6.034z"
          fill="#fff"/>
</svg>
